<svg xmlns="http://www.w3.org/2000/svg" width="24" height="24" viewBox="0 0 24 24">
  <path id="twitter_" data-name="twitter " d="M988,1552a12,12,0,1,0,12,12A12,12,0,0,0,988,1552Zm6.9,8.463c.007.152.01.306.01.46a10.121,10.121,0,0,1-15.58,8.526,7.394,7.394,0,0,0,.85.049,7.142,7.142,0,0,0,4.419-1.523,3.561,3.561,0,0,1-3.324-2.471,3.575,3.575,0,0,0,1.607-.061,3.56,3.56,0,0,1-2.854-3.489c0-.015,0-.03,0-.045a3.541,3.541,0,0,0,1.612.445,3.562,3.562,0,0,1-1.1-4.75,10.1,10.1,0,0,0,7.334,3.718,3.56,3.56,0,0,1,6.063-3.245,7.16,7.16,0,0,0,2.26-.864,3.567,3.567,0,0,1-1.565,1.969,7.115,7.115,0,0,0,2.043-.56A7.212,7.212,0,0,1,994.9,1560.463Z" transform="translate(-976 -1552)" fill="#f1ffff"/>
</svg>
